<svg xmlns="http://www.w3.org/2000/svg" viewBox="0 0 317.09 220.06"><defs><style>.cls-1{isolation:isolate;}.cls-2,.cls-9{fill:#c2cbd1;}.cls-2,.cls-8{opacity:0.7;mix-blend-mode:multiply;}.cls-3{fill:#fff;}.cls-4{fill:#747d86;}.cls-5{fill:#d9d9d9;}.cls-6{fill:#404041;}.cls-7{fill:#9bd9ea;}.cls-10{fill:#28485d;}.cls-11{fill:#5dbfda;}.cls-12{fill:#ebdeb4;}.cls-13{fill:#fd8560;}.cls-14{fill:#7ccdc3;}</style></defs><title>cover-vector</title><g class="cls-1"><g id="Layer_1" data-name="Layer 1"><path class="cls-2" d="M167.14,178.74,99.36,69.39a1.6,1.6,0,0,0-2.2-.52L21.2,116a1.61,1.61,0,0,0-.52,2.2L88.46,227.51a1.61,1.61,0,0,0,2.2.52l76-47.08A1.61,1.61,0,0,0,167.14,178.74Z" transform="translate(-13.41 -15)"/><path class="cls-3" d="M160.79,176.44a1.6,1.6,0,0,1-.52,2.2l-76,47.08a1.61,1.61,0,0,1-2.2-.52L14.33,115.86a1.61,1.61,0,0,1,.52-2.21l76-47.08a1.6,1.6,0,0,1,2.2.52Z" transform="translate(-13.41 -15)"/><rect class="cls-4" x="69.62" y="169.17" width="61.67" height="0.77" transform="translate(-86.38 60.94) rotate(-30.99)"/><rect class="cls-4" x="71.69" y="172.79" width="61.67" height="0.77" transform="matrix(0.86, -0.51, 0.51, 0.86, -87.9, 62.42)"/><rect class="cls-4" x="73.75" y="176.4" width="61.67" height="0.77" transform="translate(-89.4 63.88) rotate(-30.92)"/><rect class="cls-4" x="75.82" y="180.02" width="61.67" height="0.77" transform="translate(-91.08 65.68) rotate(-30.99)"/><path class="cls-2" d="M286.41,15H50.31c-4.19,0-5.53,3.11-3,6.92L68.93,61.71A5.63,5.63,0,0,0,73,64h56v9.07a5.52,5.52,0,0,0,5.51,5.51h66.23a5.52,5.52,0,0,0,5.5-5.51V64h57.09a5.62,5.62,0,0,0,4.09-2.31l21.91-39.79C291.93,18.11,290.6,15,286.41,15Z" transform="translate(-13.41 -15)"/><path class="cls-5" d="M115.06,35H181.3a5.51,5.51,0,0,1,5.51,5.51V58.09a5.51,5.51,0,0,1-5.51,5.51H115.06a5.5,5.5,0,0,1-5.5-5.5V40.55A5.51,5.51,0,0,1,115.06,35Z"/><path class="cls-6" d="M280.36,15H44.25c-4.19,0-5.53,3.11-3,6.92L62.87,61.71A5.63,5.63,0,0,0,67,64H257.31a5.62,5.62,0,0,0,4.09-2.31l21.91-39.79c2.56-3.8,1.23-6.92-3-6.92" transform="translate(-13.41 -15)"/><polygon class="cls-7" points="34.64 6.52 263.07 6.52 243.59 44.66 53.75 44.66 34.64 6.52"/><path class="cls-7" d="M44.52,53.41" transform="translate(-13.41 -15)"/><g class="cls-8"><polygon class="cls-9" points="198.44 181.05 195.76 183.72 191.23 179.23 168.33 202.13 173.04 206.4 170.18 209.26 182.56 220.01 237.27 220.06 198.44 181.05"/><path class="cls-9" d="M203.48,195.39c-7.74-9.33-8.67-9.81-16.7-19-5.56-6.37-7-8.3-9.84-9.46l19-10.76,0,0,4.47-2.5-2.63-4.69-4.47,2.5v0l-23.88,13.52-2.49-.61c-12.91-3.25-14.43-.83-14.43-.83l-15,8.51.1.08a4.94,4.94,0,0,0,5.32,7.85l-15.28,8.65h0l-5.89,5.49h0l-2.52,2.35,11.08-3.09h0l32.87-18.6,1.41.27s13.89,2.64,12.06,11.16a9.71,9.71,0,0,1-1.41,2.45,10.67,10.67,0,0,1-1.72,1.88l-.16.13-.44.32-.21.13-.44.25-.21.1a5.51,5.51,0,0,1-.54.21l-.15.05a5.33,5.33,0,0,1-.72.16l-.19,0c-.19,0-.38,0-.58,0h-.29l-.54,0-.32,0-.58-.11-.31-.07c-.25-.07-.51-.15-.78-.24l-.16-.05q-.49-.17-1-.41l-.32-.15-.77-.38-.41-.23-.76-.44-.44-.27-.85-.56-.4-.27c-.43-.3-.87-.62-1.33-1-3.45-2.62-8.73-5.09-12.29-2.46s-.13,6.68,4.23,9.07,24.6,18.44,24.6,18.44a20,20,0,0,0,6.24,2.76Zm-9.53-42.81,0-.08,0,0Z" transform="translate(-13.41 -15)"/><path class="cls-9" d="M203,152.11a.57.57,0,0,0,.21-.79l-2-3.62a.58.58,0,0,0-.78-.23l-2.62,1.47,2.6,4.63Z" transform="translate(-13.41 -15)"/></g><polygon class="cls-10" points="175.36 220.01 230.06 220.06 191.23 181.05 162.98 209.26 175.36 220.01"/><polygon class="cls-11" points="165.86 206.42 188.56 183.72 184.02 179.23 161.13 202.13 165.86 206.42"/><path class="cls-12" d="M196.28,195.39c-7.74-9.33-8.67-9.81-16.7-19-9.46-10.84-7-8.81-19.87-12.07s-14.43-.83-14.43-.83l-15,8.51.1.08a5,5,0,0,0,6.78,7.13l11.21-5.95,9,1.73s13.9,2.64,12.08,11.16A9.69,9.69,0,0,1,168,188.6a10.7,10.7,0,0,1-1.72,1.88l-.16.13-.44.32-.21.13-.44.25-.21.1a5.55,5.55,0,0,1-.54.21l-.15.05a5.35,5.35,0,0,1-.72.16l-.19,0c-.19,0-.38,0-.58,0h-.29l-.54,0-.32,0-.58-.11-.31-.07c-.25-.07-.52-.15-.78-.24l-.16-.05q-.49-.17-1-.41l-.32-.15-.77-.38-.41-.23-.76-.44-.44-.27-.85-.56-.4-.27c-.43-.3-.87-.62-1.33-1-3.45-2.62-8.73-5.09-12.29-2.46s-.13,6.68,4.23,9.07S170,212.7,170,212.7a20,20,0,0,0,6.24,2.76Z" transform="translate(-13.41 -15)"/><g id="pencil"><path class="cls-3" d="M193.22,147.48l-2.62,1.47,2.6,4.63,2.62-1.47a.57.57,0,0,0,.21-.79l-2-3.62A.58.58,0,0,0,193.22,147.48Z" transform="translate(-13.41 -15)"/><path class="cls-13" d="M120.42,188.58a1.44,1.44,0,0,0,1.66.49h0a1.5,1.5,0,0,0,1.44,2.57h0a1.45,1.45,0,0,0-.44,1.67l65.67-37.16-.61-1.08-1.45-2.58-.61-1.09Z" transform="translate(-13.41 -15)"/><path class="cls-12" d="M123.09,193.32a1.44,1.44,0,0,1,.44-1.67h0a1.5,1.5,0,0,1-1.44-2.57h0a1.44,1.44,0,0,1-1.66-.5L112,196.41Z" transform="translate(-13.41 -15)"/><rect class="cls-6" x="187.09" y="149.84" width="5.12" height="5.38" transform="translate(-63.77 97.18) rotate(-29.27)"/><path class="cls-6" d="M115.35,195.48a6.18,6.18,0,0,0-.33-.7,4.71,4.71,0,0,0-.49-.71L112,196.41Z" transform="translate(-13.41 -15)"/></g><path class="cls-2" d="M274.1,106.23c0-.06,0-.13,0-.19v0c-.1-6.41-5-11.57-11-11.58S252.15,99.6,252,106h0v0c0,.06,0,.13,0,.19s0,.14,0,.21v15c0,.07,0,.14,0,.21s0,.12,0,.19v0c.1,6.41,5,11.57,11,11.58s10.93-5.15,11-11.56v0c0-.07,0-.13,0-.19s0-.14,0-.21v-15C274.1,106.37,274.1,106.3,274.1,106.23Z" transform="translate(-13.41 -15)"/><path class="cls-3" d="M269.18,121.48v-15c0-.07,0-.14,0-.21s0-.13,0-.19v0h0c-.1-6.41-5-11.57-11-11.58s-10.93,5.15-11,11.56h0v0c0,.06,0,.13,0,.19s0,.14,0,.21v15c0,.07,0,.14,0,.21s0,.12,0,.19v0h0c.1,6.41,5,11.57,11,11.58s10.93-5.15,11-11.56h0v0c0-.07,0-.13,0-.19S269.18,121.55,269.18,121.48Z" transform="translate(-13.41 -15)"/><path class="cls-5" d="M259.75,106.32a1.48,1.48,0,0,1-1.48,1.48h0a1.48,1.48,0,0,1-1.48-1.48V99.67a1.48,1.48,0,0,1,1.48-1.48h0a1.48,1.48,0,0,1,1.48,1.48Z" transform="translate(-13.41 -15)"/><polygon class="cls-2" points="60.93 144.55 60.92 95.19 3.46 95.06 4.54 151.95 53.32 151.95 53.32 151.97 60.93 144.55"/><g id="postit"><polygon class="cls-13" points="0 91.3 57.46 91.44 57.47 140.8 49.9 140.8 49.85 148.21 1.07 148.21 0 91.3"/><rect class="cls-3" x="7.18" y="101.26" width="43.29" height="0.95"/><rect class="cls-3" x="7.18" y="106.89" width="43.29" height="0.95"/><rect class="cls-3" x="7.18" y="112.53" width="43.29" height="0.95"/><rect class="cls-3" x="7.18" y="118.16" width="43.29" height="0.95"/><rect class="cls-3" x="7.18" y="123.79" width="27.5" height="0.95"/><polygon class="cls-4" points="49.9 140.8 57.47 140.8 49.85 148.22 49.9 140.8"/></g><path class="cls-2" d="M314.2,67.24H291.14A4.93,4.93,0,0,0,286.08,72v56.27a4.93,4.93,0,0,0,5.06,4.76H314.2a4.92,4.92,0,0,0,5.06-4.76V72A4.92,4.92,0,0,0,314.2,67.24Z" transform="translate(-13.41 -15)"/><g id="phone"><path class="cls-10" d="M287.29,133a4.92,4.92,0,0,1-5.06-4.76V72a4.92,4.92,0,0,1,5.06-4.76h23.05A4.92,4.92,0,0,1,315.41,72v56.27a4.92,4.92,0,0,1-5.06,4.76Z" transform="translate(-13.41 -15)"/><path class="cls-5" d="M298.82,71.13a.49.49,0,1,1,.52-.49.51.51,0,0,1-.52.49" transform="translate(-13.41 -15)"/><path class="cls-5" d="M296.46,73.59a.38.38,0,1,1,0-.77h4.72a.38.38,0,1,1,0,.77Z" transform="translate(-13.41 -15)"/><path class="cls-5" d="M298.82,125.9a2.46,2.46,0,1,0,2.61,2.46,2.54,2.54,0,0,0-2.61-2.46" transform="translate(-13.41 -15)"/><rect class="cls-11" x="271.23" y="61.63" width="28.16" height="47.19"/></g><rect class="cls-2" x="80.14" y="72.06" width="148.17" height="59.84" rx="4.43" ry="4.43"/><rect class="cls-5" x="75.52" y="72.06" width="148.18" height="59.84" rx="4.43" ry="4.43"/><path class="cls-3" d="M103.23,91.63H96.14a.8.8,0,0,0-.8.8V94a.8.8,0,0,0,.8.8h7.08a.8.8,0,0,0,.8-.8V92.43A.8.8,0,0,0,103.23,91.63Z" transform="translate(-13.41 -15)"/><path class="cls-3" d="M113.83,91.63h-7.08a.8.8,0,0,0-.8.8V94a.8.8,0,0,0,.8.8h7.08a.8.8,0,0,0,.8-.8V92.43A.8.8,0,0,0,113.83,91.63Z" transform="translate(-13.41 -15)"/><rect class="cls-3" x="103.15" y="76.63" width="8.68" height="3.14" rx="0.8" ry="0.8"/><path class="cls-3" d="M135,91.63H128a.8.8,0,0,0-.8.8V94a.8.8,0,0,0,.8.8H135a.8.8,0,0,0,.8-.8V92.43A.8.8,0,0,0,135,91.63Z" transform="translate(-13.41 -15)"/><path class="cls-3" d="M145.65,91.63h-7.08a.8.8,0,0,0-.8.8V94a.8.8,0,0,0,.8.8h7.08a.8.8,0,0,0,.8-.8V92.43A.8.8,0,0,0,145.65,91.63Z" transform="translate(-13.41 -15)"/><path class="cls-3" d="M156.26,91.63h-7.08a.8.8,0,0,0-.8.8V94a.8.8,0,0,0,.8.8h7.08a.8.8,0,0,0,.8-.8V92.43A.8.8,0,0,0,156.26,91.63Z" transform="translate(-13.41 -15)"/><path class="cls-3" d="M166.87,91.63h-7.08a.8.8,0,0,0-.8.8V94a.8.8,0,0,0,.8.8h7.08a.8.8,0,0,0,.8-.8V92.43A.8.8,0,0,0,166.87,91.63Z" transform="translate(-13.41 -15)"/><path class="cls-3" d="M177.48,91.63H170.4a.8.8,0,0,0-.8.8V94a.8.8,0,0,0,.8.8h7.08a.8.8,0,0,0,.8-.8V92.43A.8.8,0,0,0,177.48,91.63Z" transform="translate(-13.41 -15)"/><rect class="cls-3" x="166.8" y="76.63" width="8.68" height="3.14" rx="0.8" ry="0.8"/><path class="cls-3" d="M198.69,91.63h-7.08a.8.8,0,0,0-.8.8V94a.8.8,0,0,0,.8.8h7.08a.8.8,0,0,0,.8-.8V92.43A.8.8,0,0,0,198.69,91.63Z" transform="translate(-13.41 -15)"/><path class="cls-3" d="M209.3,91.63h-7.08a.8.8,0,0,0-.8.8V94a.8.8,0,0,0,.8.8h7.08a.8.8,0,0,0,.8-.8V92.43A.8.8,0,0,0,209.3,91.63Z" transform="translate(-13.41 -15)"/><path class="cls-3" d="M219.91,91.63h-7.08a.8.8,0,0,0-.8.8V94a.8.8,0,0,0,.8.8h7.08a.8.8,0,0,0,.8-.8V92.43A.8.8,0,0,0,219.91,91.63Z" transform="translate(-13.41 -15)"/><path class="cls-3" d="M229.9,91.63h-6.46a.8.8,0,0,0-.8.8V94a.8.8,0,0,0,.8.8h6.46a.8.8,0,0,0,.8-.8V92.43A.8.8,0,0,0,229.9,91.63Z" transform="translate(-13.41 -15)"/><rect class="cls-3" x="81.93" y="82.06" width="7.07" height="7.07" rx="0.8" ry="0.8"/><rect class="cls-3" x="91.33" y="82.06" width="7.07" height="7.07" rx="0.8" ry="0.8"/><rect class="cls-3" x="100.72" y="82.06" width="7.07" height="7.07" rx="0.8" ry="0.8"/><rect class="cls-3" x="110.12" y="82.06" width="7.07" height="7.07" rx="0.8" ry="0.8"/><rect class="cls-3" x="119.51" y="82.06" width="7.07" height="7.07" rx="0.8" ry="0.8"/><rect class="cls-3" x="128.91" y="82.06" width="7.07" height="7.07" rx="0.8" ry="0.8"/><rect class="cls-3" x="138.3" y="82.06" width="7.07" height="7.07" rx="0.8" ry="0.8"/><rect class="cls-3" x="147.7" y="82.06" width="7.07" height="7.07" rx="0.8" ry="0.8"/><rect class="cls-3" x="157.1" y="82.06" width="7.07" height="7.07" rx="0.8" ry="0.8"/><rect class="cls-3" x="166.49" y="82.06" width="7.07" height="7.07" rx="0.8" ry="0.8"/><rect class="cls-3" x="175.88" y="82.06" width="7.07" height="7.07" rx="0.8" ry="0.8"/><rect class="cls-3" x="185.28" y="82.06" width="7.07" height="7.07" rx="0.8" ry="0.8"/><path class="cls-3" d="M214.36,97.06h-5.47a.8.8,0,0,0-.8.8v5.47a.8.8,0,0,0,.8.8h5.47a.8.8,0,0,0,.8-.8V97.86A.8.8,0,0,0,214.36,97.06Z" transform="translate(-13.41 -15)"/><rect class="cls-3" x="204.07" y="82.06" width="13.22" height="7.07" rx="0.8" ry="0.8"/><rect class="cls-3" x="81.93" y="119.03" width="13.22" height="7.07" rx="0.8" ry="0.8"/><rect class="cls-3" x="106.42" y="119.03" width="13.84" height="7.07" rx="0.8" ry="0.8"/><rect class="cls-3" x="97.25" y="119.03" width="7.07" height="7.07" rx="0.8" ry="0.8"/><rect class="cls-3" x="178.96" y="119.03" width="13.84" height="7.07" rx="0.8" ry="0.8"/><rect class="cls-3" x="204.07" y="119.03" width="13.22" height="7.07" rx="0.8" ry="0.8"/><path class="cls-3" d="M214.58,134h-5.47a.8.8,0,0,0-.8.8v5.47a.8.8,0,0,0,.8.8h5.47a.8.8,0,0,0,.8-.8v-5.47A.8.8,0,0,0,214.58,134Z" transform="translate(-13.41 -15)"/><rect class="cls-3" x="122.59" y="119.03" width="54.05" height="7.07" rx="0.36" ry="0.36"/><rect class="cls-3" x="210.22" y="91.3" width="7.07" height="7.07" rx="0.8" ry="0.8"/><rect class="cls-3" x="200.82" y="91.3" width="7.07" height="7.07" rx="0.8" ry="0.8"/><path class="cls-3" d="M211.11,106.3h-5.47a.8.8,0,0,0-.79.8v5.47a.8.8,0,0,0,.79.8h5.47a.8.8,0,0,0,.8-.8V107.1A.8.8,0,0,0,211.11,106.3Z" transform="translate(-13.41 -15)"/><rect class="cls-3" x="182.03" y="91.3" width="7.07" height="7.07" rx="0.8" ry="0.8"/><rect class="cls-3" x="172.64" y="91.3" width="7.07" height="7.07" rx="0.8" ry="0.8"/><rect class="cls-3" x="163.24" y="91.3" width="7.07" height="7.07" rx="0.8" ry="0.8"/><rect class="cls-3" x="153.85" y="91.3" width="7.07" height="7.07" rx="0.8" ry="0.8"/><rect class="cls-3" x="144.45" y="91.3" width="7.07" height="7.07" rx="0.8" ry="0.8"/><rect class="cls-3" x="135.05" y="91.3" width="7.07" height="7.07" rx="0.8" ry="0.8"/><rect class="cls-3" x="125.66" y="91.3" width="7.07" height="7.07" rx="0.8" ry="0.8"/><rect class="cls-3" x="116.27" y="91.3" width="7.07" height="7.07" rx="0.8" ry="0.8"/><rect class="cls-3" x="106.87" y="91.3" width="7.07" height="7.07" rx="0.8" ry="0.8"/><rect class="cls-3" x="97.48" y="91.3" width="7.07" height="7.07" rx="0.8" ry="0.8"/><rect class="cls-3" x="81.93" y="91.3" width="13.22" height="7.07" rx="0.8" ry="0.8"/><rect class="cls-3" x="193.27" y="100.55" width="7.07" height="7.07" rx="0.8" ry="0.8"/><rect class="cls-3" x="183.88" y="100.55" width="7.07" height="7.07" rx="0.8" ry="0.8"/><rect class="cls-3" x="174.48" y="100.55" width="7.07" height="7.07" rx="0.8" ry="0.8"/><rect class="cls-3" x="165.09" y="100.55" width="7.07" height="7.07" rx="0.8" ry="0.8"/><rect class="cls-3" x="155.69" y="100.55" width="7.07" height="7.07" rx="0.8" ry="0.8"/><rect class="cls-3" x="146.29" y="100.55" width="7.07" height="7.07" rx="0.8" ry="0.8"/><rect class="cls-3" x="136.9" y="100.55" width="7.07" height="7.07" rx="0.8" ry="0.8"/><rect class="cls-3" x="127.5" y="100.55" width="7.07" height="7.07" rx="0.8" ry="0.8"/><rect class="cls-3" x="118.11" y="100.55" width="7.07" height="7.07" rx="0.8" ry="0.8"/><rect class="cls-3" x="108.72" y="100.55" width="7.07" height="7.07" rx="0.8" ry="0.8"/><rect class="cls-3" x="99.32" y="100.55" width="7.07" height="7.07" rx="0.8" ry="0.8"/><rect class="cls-3" x="81.93" y="100.55" width="15.06" height="7.07" rx="0.8" ry="0.8"/><rect class="cls-3" x="202.84" y="100.55" width="14.45" height="7.07" rx="0.8" ry="0.8"/><rect class="cls-3" x="188.35" y="109.79" width="7.07" height="7.07" rx="0.8" ry="0.8"/><rect class="cls-3" x="178.96" y="109.79" width="7.07" height="7.07" rx="0.8" ry="0.8"/><rect class="cls-3" x="169.56" y="109.79" width="7.07" height="7.07" rx="0.8" ry="0.8"/><rect class="cls-3" x="160.17" y="109.79" width="7.07" height="7.07" rx="0.8" ry="0.8"/><rect class="cls-3" x="150.77" y="109.79" width="7.07" height="7.07" rx="0.8" ry="0.8"/><rect class="cls-3" x="141.38" y="109.79" width="7.07" height="7.07" rx="0.8" ry="0.8"/><rect class="cls-3" x="131.98" y="109.79" width="7.07" height="7.07" rx="0.8" ry="0.8"/><rect class="cls-3" x="122.59" y="109.79" width="7.07" height="7.07" rx="0.8" ry="0.8"/><rect class="cls-3" x="113.19" y="109.79" width="7.07" height="7.07" rx="0.8" ry="0.8"/><rect class="cls-3" x="103.8" y="109.79" width="7.07" height="7.07" rx="0.8" ry="0.8"/><rect class="cls-3" x="81.93" y="109.79" width="19.37" height="7.07" rx="0.8" ry="0.8"/><rect class="cls-3" x="197.92" y="109.79" width="19.37" height="7.07" rx="0.8" ry="0.8"/><path class="cls-2" d="M329.15,198.38a4.65,4.65,0,0,0-5.69-.7L319.77,194a1.11,1.11,0,0,0-1.3-.19l-.46-.42a8.74,8.74,0,0,0-11.21-.84c-.08,0-5.75,3.5-10.25,5.92a12.37,12.37,0,0,0,3.44-8.56c0-.19,0-.38,0-.57s0-.28,0-.42c0-1.45-.6-8.47-.63-8.73a9.34,9.34,0,0,1,9.33-9.33,9.23,9.23,0,0,1,4,.92,4.83,4.83,0,0,0,2.09.54,5.41,5.41,0,0,0,2.81-.8,1.11,1.11,0,0,0,.85-.31l3.68-3.68a4.65,4.65,0,1,0-1.58-1.58l-3.68,3.68a1.11,1.11,0,0,0,.35,1.81,1.07,1.07,0,0,1-.35-.23,1,1,0,0,1-.09-.14,4.62,4.62,0,0,1-2,.46,4.06,4.06,0,0,1-1.72-.46,10,10,0,0,0-4.4-1,10.14,10.14,0,0,0-10.12,10.16c0,.07.6,7.3.63,8.72,0,.15,0,.3,0,.45s0,.35,0,.52a11.63,11.63,0,0,1-23.25,0c0-.07.09-7.4,2.74-13.32A45.79,45.79,0,0,0,282.21,160a15.28,15.28,0,0,0-29.67-5.13H234.46a2.35,2.35,0,0,0-2.35,2.35V202.7a2.35,2.35,0,0,0,2.35,2.35h28.17A2.35,2.35,0,0,0,265,202.7V157.21a2.35,2.35,0,0,0-2.35-2.35h-9.25a14.48,14.48,0,0,1,28,5.13A44.91,44.91,0,0,1,278,176.26c-2.72,6.08-2.81,13.57-2.81,13.65a12.42,12.42,0,0,0,17.29,11.43c3.57-1.28,14.33-7.83,14.81-8.12a7.94,7.94,0,0,1,10.22.75l.47.44a1.11,1.11,0,0,0,.25,1.17l3.68,3.68a4.65,4.65,0,1,0,7.28-.89ZM318,194.31a1.06,1.06,0,0,1,.2-.31A1.1,1.1,0,0,0,318,194.31Z" transform="translate(-13.41 -15)"/><rect class="cls-3" x="213.52" y="139.86" width="32.87" height="50.19" rx="2.35" ry="2.35"/><rect class="cls-14" x="217.29" y="143.19" width="25.33" height="33.26" rx="2.32" ry="2.32"/><circle class="cls-5" cx="229.95" cy="183.49" r="3.91"/><path class="cls-5" d="M322.62,160.25a4.65,4.65,0,1,1-6.58,6.58,4.54,4.54,0,0,1-.69-.89,4.65,4.65,0,0,1,7.28-5.69Z" transform="translate(-13.41 -15)"/><path class="cls-4" d="M316.93,167.53l-3.68,3.68a1.12,1.12,0,1,1-1.58-1.58l3.68-3.68a4.54,4.54,0,0,0,.69.89A4.66,4.66,0,0,0,316.93,167.53Z" transform="translate(-13.41 -15)"/><path class="cls-5" d="M324,205a4.65,4.65,0,0,1-7.28-5.69,4.54,4.54,0,0,1,.69-.89,4.66,4.66,0,0,1,6.58,0A4.65,4.65,0,0,1,324,205Z" transform="translate(-13.41 -15)"/><path class="cls-4" d="M316.68,199.26,313,195.59a1.12,1.12,0,1,1,1.58-1.58l3.68,3.68a4.61,4.61,0,0,0-.89.7A4.54,4.54,0,0,0,316.68,199.26Z" transform="translate(-13.41 -15)"/><path class="cls-3" d="M313,194a1.07,1.07,0,0,1,.28-.18l-.46-.42a8.74,8.74,0,0,0-11.22-.84c-.08,0-5.75,3.5-10.25,5.92a12.37,12.37,0,0,0,3.44-8.56c0-.19,0-.38,0-.57s0-.28,0-.42c0-1.45-.6-8.47-.62-8.73a9.34,9.34,0,0,1,9.33-9.33,9.23,9.23,0,0,1,4,.92,4.83,4.83,0,0,0,2.09.54,5.41,5.41,0,0,0,2.81-.8,1.1,1.1,0,0,1-.73-.31,1,1,0,0,1-.09-.14,4.62,4.62,0,0,1-2,.46,4.07,4.07,0,0,1-1.72-.46,10,10,0,0,0-4.4-1,10.14,10.14,0,0,0-10.12,10.16c0,.07.6,7.3.63,8.72,0,.15,0,.3,0,.45s0,.35,0,.52a11.63,11.63,0,0,1-23.25,0c0-.07.09-7.4,2.74-13.32A45.8,45.8,0,0,0,277,160a15.29,15.29,0,0,0-29.94-4.36l.77.23A14.48,14.48,0,0,1,276.23,160a44.93,44.93,0,0,1-3.46,16.28C270,182.35,270,189.84,270,189.91a12.42,12.42,0,0,0,17.29,11.43c3.57-1.28,14.33-7.83,14.81-8.12a7.94,7.94,0,0,1,10.22.75l.47.44A1.11,1.11,0,0,1,313,194Z" transform="translate(-13.41 -15)"/><g id="_Group_" data-name="&lt;Group&gt;"><path class="cls-3" d="M291.49,53.62a2.73,2.73,0,0,1-.08-3.79L301.25,40a3.46,3.46,0,0,1,4.71.23,3.37,3.37,0,0,1,.15,4.64l-6.49,6.48-.49-.49,6.48-6.48a2.67,2.67,0,0,0-.15-3.65,2.77,2.77,0,0,0-3.73-.23l-9.83,9.83a2,2,0,0,0,2.88,2.89l8.91-8.91a1.34,1.34,0,0,0-1.9-1.9l-5.87,5.87-.49-.49,5.87-5.87a2,2,0,0,1,2.88,2.88l-8.91,8.91a2.73,2.73,0,0,1-3.79-.08" transform="translate(-13.41 -15)"/><path class="cls-14" d="M33.8,87.76a2.73,2.73,0,0,1-2.63,2.74H17.26A3.47,3.47,0,0,1,14.09,87a3.37,3.37,0,0,1,3.17-3.39h9.17v.7H17.26A2.67,2.67,0,0,0,14.79,87a2.77,2.77,0,0,0,2.48,2.79H31.17a2,2,0,0,0,0-4.08H18.57a1.34,1.34,0,0,0,0,2.69h8.31v.7H18.57a2,2,0,0,1,0-4.08H31.17a2.73,2.73,0,0,1,2.63,2.74" transform="translate(-13.41 -15)"/><path class="cls-6" d="M292.09,219.6a2.73,2.73,0,0,1-2.63,2.74H275.55a3.46,3.46,0,0,1-3.17-3.49,3.37,3.37,0,0,1,3.17-3.39h9.17v.7h-9.17a2.67,2.67,0,0,0-2.48,2.69,2.77,2.77,0,0,0,2.48,2.79h13.91a2,2,0,0,0,0-4.08H276.85a1.34,1.34,0,1,0,0,2.69h8.3v.7h-8.3a2,2,0,0,1,0-4.08h12.61a2.73,2.73,0,0,1,2.63,2.74" transform="translate(-13.41 -15)"/><path class="cls-3" d="M32.65,222.37a2.73,2.73,0,0,1-.08-3.79l9.83-9.83a3.46,3.46,0,0,1,4.71.23,3.37,3.37,0,0,1,.15,4.64l-6.49,6.49-.49-.49,6.48-6.48a2.67,2.67,0,0,0-.15-3.65,2.77,2.77,0,0,0-3.73-.23l-9.83,9.83A2,2,0,0,0,35.95,222L44.86,213a1.34,1.34,0,1,0-1.9-1.9L37.09,217l-.49-.49,5.87-5.87a2,2,0,1,1,2.88,2.88l-8.91,8.91a2.72,2.72,0,0,1-3.79-.08" transform="translate(-13.41 -15)"/><path class="cls-6" d="M33.64,63.27a2.73,2.73,0,0,1-2.74-2.63V46.73a3.46,3.46,0,0,1,3.49-3.17,3.37,3.37,0,0,1,3.38,3.17V55.9h-.69V46.73a2.67,2.67,0,0,0-2.69-2.48,2.77,2.77,0,0,0-2.8,2.48v13.9a2,2,0,0,0,4.08,0V48A1.34,1.34,0,0,0,33,48v8.3h-.69V48a2,2,0,1,1,4.08,0v12.6a2.73,2.73,0,0,1-2.74,2.63" transform="translate(-13.41 -15)"/><path class="cls-10" d="M39.62,197a2.73,2.73,0,0,1-3.74-.65L28.1,184.83a3.47,3.47,0,0,1,1.12-4.58,3.37,3.37,0,0,1,4.58.73l5.13,7.6-.58.39-5.13-7.6a2.67,2.67,0,0,0-3.61-.55,2.77,2.77,0,0,0-.93,3.62L36.46,196a2,2,0,0,0,3.38-2.29l-7.05-10.45a1.34,1.34,0,0,0-2.23,1.5l4.65,6.88-.58.39L30,185.13a2,2,0,1,1,3.38-2.28l7.05,10.45a2.73,2.73,0,0,1-.8,3.71" transform="translate(-13.41 -15)"/></g></g></g></svg>